<?xml version='1.0' encoding='iso-8859-1'?>
<!-- Uploaded to: SVG Repo, www.svgrepo.com, Generator: SVG Repo Mixer Tools -->
<svg fill="#FFFFFF" height="800px" width="800px" version="1.1" xmlns="http://www.w3.org/2000/svg" viewBox="0 0 462.872 462.872" xmlns:xlink="http://www.w3.org/1999/xlink" enable-background="new 0 0 462.872 462.872">
  <path d="m459.797,194.028c-2.449-2.448-5.948-3.536-9.353-2.896l-175.535,32.788c-2.083,0.389-3.999,1.398-5.497,2.896l-39.832,39.834c-1.992,1.992-3.1,4.701-3.075,7.518l1.213,137.089-32.573,32.573c-4.101,4.101-4.101,10.749 0,14.85 2.051,2.05 4.737,3.075 7.425,3.075s5.374-1.025 7.425-3.075l32.572-32.572 137.091,1.212c0.031,0 0.062,0 0.093,0 2.783,0 5.455-1.105 7.425-3.075l39.833-39.832c1.498-1.498 2.508-3.414 2.896-5.497l32.789-175.534c0.635-3.406-0.448-6.905-2.897-9.354zm-49.939,177.834l-34.419,34.419-112.056-.991 28.66-28.66 52.303-3.165c5.789-0.35 10.197-5.326 9.847-11.114s-5.327-10.22-11.114-9.847l-28.643,1.733 25.24-25.24 38.293-2.315c5.788-0.35 10.197-5.326 9.847-11.114-0.351-5.789-5.322-10.215-11.114-9.847l-14.635,.885 35.094-35.094c4.101-4.101 4.101-10.749 0-14.85-4.102-4.1-10.748-4.1-14.85,0l-35.094,35.094 .885-14.636c0.351-5.788-4.058-10.765-9.847-11.114-5.769-0.361-10.764,4.058-11.114,9.847l-2.317,38.296-25.24,25.24 1.733-28.645c0.351-5.788-4.058-10.765-9.847-11.114-5.758-0.354-10.764,4.059-11.114,9.847l-3.165,52.305-28.657,28.657-.992-112.054 34.419-34.419 157.275-29.379-29.378,157.275zm-273.369,3.618c-0.107,0.03-0.215,0.055-0.323,0.084 9.016,5.994 18.687,11.202 28.942,15.498 5.349,2.241 7.867,8.394 5.627,13.742-1.686,4.022-5.584,6.445-9.689,6.445-1.353,0-2.727-0.263-4.053-0.818-68.642-28.76-114.087-93.718-118.051-167.376h-28.442c-5.799,0-10.5-4.701-10.5-10.5s4.701-10.5 10.5-10.5h28.446c1.037-19.227 4.905-37.712 11.192-55.049l-26.175-11.11c-5.338-2.266-7.828-8.43-5.563-13.768s8.43-7.829 13.768-5.563l26.206,11.123c7.851-15.945 17.839-30.654 29.592-43.752l-20.18-20.18c-4.101-4.101-4.101-10.749 0-14.85 4.102-4.1 10.748-4.1 14.85,0l20.179,20.179c13.924-12.496 29.67-22.996 46.785-31.054l-10.664-26.394c-2.173-5.377 0.425-11.496 5.802-13.669 5.378-2.174 11.497,0.425 13.669,5.802l10.652,26.364c16.413-5.628 33.818-9.099 51.877-10.073v-28.443c0-5.799 4.701-10.5 10.5-10.5s10.5,4.701 10.5,10.5v28.444c18.915,1.026 37.417,4.825 55.034,11.242l11.131-26.222c2.266-5.338 8.43-7.829 13.768-5.563 5.338,2.266 7.828,8.43 5.563,13.768l-11.154,26.276c8.286,4.096 16.32,8.803 24.039,14.117 6.919,4.763 13.479,9.94 19.667,15.482l20.254-20.254c4.102-4.1 10.748-4.1 14.85,0 4.101,4.101 4.101,10.749 0,14.85l-20.24,20.24c12.547,13.95 23.031,29.654 31.1,46.726l26.402-10.667c5.378-2.172 11.497,0.425 13.669,5.802 2.173,5.377-0.425,11.497-5.802,13.669l-35.841,14.48c-5.364,2.168-11.466-0.41-13.654-5.765-17.582-43.046-50.755-76.044-91.407-93.534-0.253-0.085-1.23-0.5-1.461-0.619-20.607-8.639-43.092-13.316-66.418-13.316-92.148,0-167.571,72.934-171.599,164.106 6.688,0.893 13.776-0.056 19.145-2.775 4.654-2.357 7.654-5.783 8.92-10.183 1.293-4.499 5.409-7.599 10.091-7.599s8.798,3.1 10.091,7.599c3.06,10.641 14.373,14.415 23.131,14.415 8.757,0 20.067-3.775 23.125-14.414 1.294-4.5 5.41-7.6 10.092-7.6s8.798,3.1 10.091,7.599c1.918,6.671 6.999,10.164 10.924,11.921 7.7,3.444 17.536,3.323 25.061-0.304 5.227-2.523 11.501-0.327 14.019,4.896 2.52,5.223 0.328,11.5-4.896,14.019-13.062,6.3-29.445,6.515-42.761,0.558-4.794-2.145-8.995-4.998-12.489-8.432-8.185,7.99-19.991,12.757-33.164,12.758-13.283,0.001-25.178-4.845-33.371-12.956-2.703,2.502-5.838,4.667-9.372,6.457-8.354,4.232-18.408,5.983-28.289,5.198 1.1,14.147 3.921,27.905 8.294,41.027 0.007,0.018 0.015,0.035 0.022,0.053 1.365,1.295 8.291,3.409 18.101,1.269 8.307-1.813 14.511-5.895 15.806-10.396 1.293-4.499 5.409-7.599 10.091-7.599s8.798,3.1 10.091,7.599c3.06,10.641 14.373,14.415 23.131,14.415 8.757,0 20.067-3.775 23.125-14.414 1.294-4.5 5.409-7.6 10.091-7.6s8.798,3.099 10.092,7.598c1.887,6.562 6.837,10.038 10.657,11.8 5.266,2.429 7.566,8.666 5.138,13.933-2.429,5.266-8.665,7.564-13.933,5.138-4.59-2.117-8.626-4.895-12.003-8.215-8.185,7.992-19.991,12.76-33.166,12.761-13.721,0.001-25.959-5.169-34.167-13.767-8.903,7.008-21.269,10.451-32.175,10.645-0.414,0.007-0.813-0.009-1.221-0.01 7.472,14.76 17.05,28.375 28.447,40.41 0.389,0.274 0.77,0.566 1.128,0.899 4.999,4.648 14.299,6.119 23.136,3.667 8.31-2.309 14.384-7.56 16.249-14.046 1.294-4.499 5.409-7.599 10.091-7.599s8.798,3.1 10.092,7.599c3.092,10.757 14.81,14.957 25.041,14.357 5.79-0.341 10.759,4.073 11.101,9.862s-4.073,10.759-9.862,11.101c-14.37,0.852-27.507-4.041-36.385-12.744-5.433,5.351-12.522,9.427-20.708,11.7z"/>
</svg>